<svg width="34" height="47" viewBox="0 0 34 47" fill="none" xmlns="http://www.w3.org/2000/svg">
<path id="Vector" d="M31.301 0.982753L16.7085 0.91324C16.2885 0.929611 15.8841 1.09201 15.5545 1.37669C15.2249 1.66138 14.9874 2.05344 14.8766 2.49558L0.447869 42.7602C0.262066 43.1961 0.164634 43.6705 0.162239 44.151C0.159845 44.6315 0.252543 45.1068 0.433992 45.5445C0.559941 45.9247 0.78538 46.2561 1.08244 46.4979C1.3795 46.7397 1.73515 46.8812 2.10539 46.9048L16.6979 46.9743C17.0989 46.9586 17.4853 46.8047 17.8013 46.5346C18.1173 46.2645 18.3467 45.8922 18.4565 45.4712L32.8852 5.20662C33.071 4.7707 33.1684 4.29631 33.1708 3.81581C33.1732 3.33531 33.0805 2.85999 32.8991 2.42232C32.782 2.04394 32.5704 1.7088 32.2881 1.45449C32.0058 1.20019 31.664 1.03681 31.301 0.982753ZM18.2852 6.64857L27.6973 6.6934L15.2668 41.3192L5.63573 41.2734L18.2852 6.64857Z" fill="#3067B1"/>
</svg>
