<svg width="371" height="257" viewBox="0 0 371 257" fill="none" xmlns="http://www.w3.org/2000/svg">
<path d="M259.108 249.468C259.602 250.635 260.434 251.639 261.502 252.357C262.57 253.075 263.829 253.476 265.126 253.512L314.063 252.86C315.473 252.737 316.812 252.2 317.9 251.32C318.988 250.44 319.775 249.258 320.156 247.932L367.054 123.594C367.619 122.248 367.898 120.805 367.875 119.35C367.851 117.896 367.524 116.46 366.915 115.131C366.43 113.965 365.613 112.958 364.559 112.229C363.506 111.499 362.261 111.078 360.97 111.014L312.034 111.665C310.609 111.774 309.255 112.305 308.152 113.186C307.05 114.068 306.252 115.257 305.866 116.594L258.968 240.933C257.856 243.682 257.906 246.749 259.108 249.468Z" fill="#3067B1"/>
<path d="M89.0195 251.731C89.5079 252.888 90.328 253.885 91.3819 254.602C92.4357 255.319 93.6788 255.727 94.9628 255.776L143.9 255.125C145.324 255.016 146.678 254.485 147.781 253.603C148.884 252.722 149.682 251.533 150.067 250.195L196.966 125.857C198.074 123.132 198.024 120.088 196.826 117.394C196.336 116.218 195.507 115.204 194.439 114.474C193.372 113.744 192.11 113.328 190.807 113.278L141.871 113.929C140.46 114.052 139.122 114.589 138.034 115.47C136.945 116.35 136.159 117.531 135.778 118.858L88.8789 243.196C88.312 244.554 88.0323 246.009 88.0565 247.475C88.0806 248.942 88.4081 250.389 89.0195 251.731Z" fill="#3067B1"/>
<path d="M3.93814 252.863C4.43189 254.031 5.26348 255.035 6.3318 255.753C7.40011 256.47 8.65914 256.872 9.95582 256.907L58.8926 256.256C60.3035 256.133 61.6416 255.595 62.7297 254.715C63.8178 253.835 64.6045 252.654 64.9856 251.327L111.587 126.993C112.152 125.647 112.431 124.204 112.407 122.75C112.383 121.295 112.057 119.86 111.447 118.53C110.962 117.365 110.145 116.358 109.092 115.628C108.038 114.899 106.793 114.477 105.503 114.413L56.5662 115.064C55.142 115.173 53.7873 115.704 52.6847 116.586C51.582 117.467 50.7842 118.656 50.3988 119.994L3.50001 244.332C2.48319 247.118 2.64068 250.185 3.93814 252.863Z" fill="#3067B1"/>
<path d="M166.038 249.289C166.532 250.457 167.363 251.46 168.432 252.178C169.5 252.896 170.759 253.297 172.056 253.333L220.992 252.682C222.403 252.558 223.741 252.021 224.83 251.141C225.918 250.261 226.704 249.079 227.085 247.753L273.91 123.416C274.142 122.83 274.307 122.221 274.401 121.6L315.385 13.04C315.952 11.6823 316.232 10.2269 316.208 8.7605C316.183 7.29412 315.856 5.8468 315.245 4.50483C314.756 3.34795 313.936 2.35139 312.882 1.63417C311.828 0.916961 310.585 0.50941 309.301 0.460099L260.365 1.11129C258.95 1.22444 257.607 1.75803 256.517 2.63966C255.427 3.5213 254.643 4.70828 254.271 6.03965L207.075 130.382C206.819 131.015 206.631 131.672 206.512 132.343L165.6 240.758C164.583 243.544 164.741 246.61 166.038 249.289Z" fill="#3067B1"/>
<path d="M180.829 30.1446L165.955 30.3204C165.527 30.3402 165.118 30.4778 164.788 30.7129C164.458 30.948 164.223 31.2684 164.119 31.6271L150.221 64.3678C150.04 64.7227 149.95 65.1073 149.958 65.4953C149.965 65.8834 150.069 66.2657 150.263 66.6162C150.399 66.9212 150.635 67.1853 150.943 67.3758C151.25 67.5663 151.616 67.6748 151.993 67.688L166.868 67.5122C167.276 67.4932 167.667 67.3627 167.984 67.1396C168.3 66.9165 168.527 66.6123 168.63 66.2706L182.528 33.5299C182.709 33.175 182.799 32.7904 182.792 32.4024C182.784 32.0144 182.68 31.6321 182.487 31.2815C182.36 30.9779 182.137 30.7106 181.845 30.5098C181.552 30.3089 181.2 30.1824 180.829 30.1446ZM167.677 34.9263L177.271 34.8129L165.296 62.9688L155.479 63.0849L167.677 34.9263Z" fill="#3067B1"/>
<path d="M130.878 29.7694L116.004 29.9452C115.621 29.9473 115.247 30.0405 114.922 30.2143C114.597 30.3882 114.334 30.636 114.162 30.9307L100.264 63.6714C100.083 64.0264 99.9935 64.4109 100.001 64.799C100.008 65.187 100.112 65.5693 100.306 65.9198C100.447 66.2346 100.694 66.5054 101.017 66.6965C101.339 66.8877 101.72 66.9903 102.111 66.9908L117.06 66.8141C117.468 66.7951 117.859 66.6646 118.175 66.4415C118.492 66.2184 118.718 65.9141 118.822 65.5725L133.092 32.8274C133.414 32.1019 133.399 31.2966 133.05 30.579C132.833 30.2632 132.506 30.0147 132.116 29.8692C131.726 29.7237 131.292 29.6888 130.878 29.7694ZM117.726 34.5511L127.617 34.4342L115.717 62.5893L105.751 62.707L117.726 34.5511Z" fill="#3067B1"/>
<path d="M207.227 30.1622L192.724 30.3336C192.31 30.3664 191.918 30.5097 191.602 30.7437C191.287 30.9776 191.064 31.2907 190.963 31.6395L176.693 64.3846C176.371 65.11 176.386 65.9154 176.735 66.6329C176.871 66.9379 177.107 67.202 177.415 67.3925C177.723 67.583 178.088 67.6916 178.466 67.7048L193.34 67.529C193.758 67.5135 194.16 67.3853 194.49 67.1625C194.819 66.9397 195.059 66.6334 195.177 66.2865L209.373 33.5423C209.588 33.1614 209.696 32.7419 209.688 32.3177C209.68 31.8936 209.556 31.4768 209.327 31.1012C209.128 30.7796 208.82 30.5176 208.445 30.3499C208.07 30.1822 207.645 30.1168 207.227 30.1622ZM194.075 34.9439L204.04 34.8261L192.065 62.9821L182.174 63.099L194.075 34.9439Z" fill="#3067B1"/>
<path d="M156.363 30.1446L141.489 30.3204C141.061 30.3402 140.652 30.4778 140.322 30.7129C139.991 30.948 139.757 31.2684 139.653 31.6271L125.755 64.3678C125.574 64.7227 125.484 65.1073 125.492 65.4953C125.499 65.8834 125.603 66.2657 125.797 66.6162C125.933 66.9212 126.169 67.1853 126.477 67.3758C126.784 67.5663 127.15 67.6748 127.527 67.688L142.402 67.5122C142.81 67.4932 143.201 67.3627 143.518 67.1396C143.834 66.9165 144.061 66.6123 144.164 66.2706L158.062 33.5299C158.243 33.175 158.333 32.7904 158.326 32.4024C158.318 32.0144 158.214 31.6321 158.021 31.2815C157.894 30.9779 157.671 30.7106 157.379 30.5098C157.086 30.3089 156.734 30.1824 156.363 30.1446ZM143.211 34.9263L152.805 34.8129L140.83 62.9688L131.013 63.0849L143.211 34.9263Z" fill="#3067B1"/>
<path d="M106.502 30.1883L91.6276 30.3641C91.2451 30.3663 90.8709 30.4594 90.5461 30.6332C90.2213 30.8071 89.9584 31.055 89.7862 31.3497L75.8879 64.0904C75.7073 64.4453 75.6175 64.8299 75.6247 65.2179C75.6319 65.6059 75.7359 65.9882 75.9296 66.3387C76.0706 66.6535 76.3185 66.9243 76.6407 67.1155C76.9629 67.3066 77.3444 67.4092 77.7348 67.4097L92.6836 67.2331C93.092 67.214 93.4827 67.0835 93.7994 66.8604C94.116 66.6373 94.3424 66.3331 94.4459 65.9914L108.716 33.2463C109.038 32.5209 109.023 31.7155 108.674 30.998C108.457 30.6821 108.13 30.4336 107.74 30.2882C107.35 30.1427 106.916 30.1077 106.502 30.1883ZM93.3496 34.97L103.241 34.8531L91.3406 63.0082L81.3748 63.126L93.3496 34.97Z" fill="#3067B1"/>
</svg>
