<svg width="123" height="35" viewBox="0 0 123 35" fill="none" xmlns="http://www.w3.org/2000/svg">
<g id="Group 3">
<path id="Vector" d="M95.4165 0.406577L82.008 0.568379C81.6224 0.58669 81.2538 0.713302 80.9561 0.929705C80.6584 1.14611 80.4473 1.44097 80.3535 1.77119L67.8249 31.9075C67.662 32.2342 67.5811 32.5882 67.5876 32.9454C67.5941 33.3025 67.6878 33.6544 67.8625 33.9771C67.9851 34.2578 68.1982 34.5009 68.4755 34.6762C68.7528 34.8516 69.0821 34.9515 69.4227 34.9636L82.8312 34.8018C83.1994 34.7843 83.5516 34.6642 83.837 34.4589C84.1225 34.2535 84.3265 33.9735 84.4198 33.659L96.9484 3.52265C97.1112 3.19594 97.1921 2.84195 97.1856 2.4848C97.1791 2.12765 97.0854 1.77574 96.9108 1.45311C96.7963 1.17361 96.5959 0.927614 96.3319 0.742744C96.068 0.557873 95.751 0.441441 95.4165 0.406577ZM83.5603 4.8079L92.2088 4.70354L81.4141 30.6198L72.5645 30.7266L83.5603 4.8079Z" fill="#3067B1"/>
<path id="Vector_2" d="M50.3883 0.060494L36.9798 0.222296C36.635 0.224279 36.2977 0.310004 36.0049 0.470028C35.7121 0.630049 35.4751 0.858202 35.3199 1.12947L22.7913 31.2658C22.6285 31.5925 22.5476 31.9465 22.5541 32.3036C22.5606 32.6608 22.6543 33.0127 22.8289 33.3353C22.956 33.6251 23.1795 33.8743 23.4699 34.0503C23.7604 34.2262 24.1042 34.3207 24.4562 34.3211L37.9317 34.1585C38.2999 34.141 38.6521 34.0209 38.9375 33.8155C39.223 33.6102 39.427 33.3301 39.5203 33.0156L52.3841 2.87526C52.6741 2.2075 52.6607 1.46619 52.3465 0.80572C52.1509 0.515023 51.856 0.286288 51.5042 0.152389C51.1523 0.0184895 50.7616 -0.0136903 50.3883 0.060494ZM38.5321 4.46182L47.4488 4.35422L36.7211 30.2697L27.7374 30.3781L38.5321 4.46182Z" fill="#3067B1"/>
<path id="Vector_3" d="M119.213 0.422389L106.14 0.580146C105.766 0.610382 105.412 0.742298 105.128 0.957636C104.844 1.17298 104.642 1.4611 104.552 1.78215L91.6882 31.9225C91.3982 32.5903 91.4116 33.3316 91.7258 33.9921C91.8484 34.2728 92.0615 34.5159 92.3389 34.6912C92.6162 34.8666 92.9454 34.9665 93.286 34.9787L106.695 34.8169C107.072 34.8025 107.434 34.6846 107.731 34.4795C108.028 34.2745 108.244 33.9925 108.35 33.6732L121.147 3.53361C121.341 3.18303 121.438 2.79686 121.431 2.40646C121.424 2.01606 121.313 1.63243 121.106 1.28669C120.926 0.990651 120.649 0.749487 120.311 0.595149C119.973 0.440811 119.59 0.380565 119.213 0.422389ZM107.357 4.82371L116.34 4.71531L105.546 30.6316L96.6289 30.7392L107.357 4.82371Z" fill="#3067B1"/>
<path id="Vector_4" d="M73.3616 0.406577L59.9531 0.568379C59.5675 0.58669 59.1989 0.713302 58.9012 0.929705C58.6035 1.14611 58.3924 1.44097 58.2985 1.77119L45.7699 31.9075C45.6071 32.2342 45.5262 32.5882 45.5327 32.9454C45.5391 33.3025 45.6329 33.6544 45.8075 33.9771C45.9301 34.2578 46.1433 34.5009 46.4206 34.6762C46.6979 34.8516 47.0272 34.9515 47.3678 34.9636L60.7762 34.8018C61.1445 34.7843 61.4966 34.6642 61.7821 34.4589C62.0675 34.2535 62.2716 33.9735 62.3648 33.659L74.8934 3.52265C75.0563 3.19594 75.1372 2.84195 75.1307 2.4848C75.1242 2.12765 75.0304 1.77574 74.8558 1.45311C74.7414 1.17361 74.541 0.927614 74.277 0.742744C74.013 0.557873 73.696 0.441441 73.3616 0.406577ZM61.5054 4.8079L70.1538 4.70354L59.3591 30.6198L50.5095 30.7266L61.5054 4.8079Z" fill="#3067B1"/>
<path id="Vector_5" d="M28.4144 0.446175L15.006 0.607977C14.6611 0.60996 14.3238 0.695685 14.031 0.85571C13.7382 1.01573 13.5012 1.24388 13.346 1.51515L0.817436 31.6515C0.654608 31.9782 0.573695 32.3322 0.580184 32.6893C0.586673 33.0465 0.680411 33.3984 0.855037 33.721C0.982116 34.0108 1.20559 34.26 1.49605 34.436C1.7865 34.6119 2.13034 34.7063 2.48233 34.7068L15.9578 34.5442C16.3261 34.5267 16.6782 34.4066 16.9637 34.2012C17.2491 33.9959 17.4532 33.7158 17.5464 33.4013L30.4102 3.26094C30.7003 2.59318 30.6868 1.85187 30.3726 1.1914C30.177 0.900704 29.8821 0.67197 29.5303 0.53807C29.1784 0.404171 28.7878 0.371991 28.4144 0.446175ZM16.5583 4.8475L25.4749 4.7399L14.7472 30.6554L5.76354 30.7638L16.5583 4.8475Z" fill="#3067B1"/>
</g>
</svg>
