<svg width="54" height="34" viewBox="0 0 54 34" fill="none" xmlns="http://www.w3.org/2000/svg">
<g id="SVGRepo_iconCarrier">
<path id="Vector" fill-rule="evenodd" clip-rule="evenodd" d="M22.1875 8.95866C18.7352 14.2974 19.409 21.3093 23.8145 25.8932C28.1491 30.4127 35.1227 31.1195 40.276 27.5619C41.3593 26.8162 42.3251 25.9126 43.1407 24.8815C43.9428 23.8674 44.595 22.7434 45.0772 21.544C46.0666 19.0801 46.3225 16.383 45.8142 13.7773C45.3139 11.1953 44.0717 8.81549 42.2403 6.92834C40.4363 5.06324 38.1129 3.78404 35.5722 3.25709C33.0417 2.74002 30.4137 3.00685 28.0385 4.02194C25.6411 5.04947 23.6038 6.76818 22.1875 8.95866Z" stroke="#1341BB" stroke-width="5" stroke-linecap="round" stroke-linejoin="round"/>
<path id="Vector_2" d="M44.669 22.7707C43.5054 21.9224 41.8742 22.1787 41.0262 23.3426C40.1783 24.5066 40.4345 26.1374 41.5985 26.9854L44.669 22.7707ZM49.7441 32.9199C50.9077 33.7678 52.5389 33.5119 53.3868 32.348C54.2347 31.184 53.9785 29.5532 52.8146 28.7052L49.7441 32.9199ZM9.56055 19.5135C11.0006 19.5135 12.168 18.3465 12.168 16.9061C12.168 15.4661 11.0006 14.2987 9.56055 14.2987V19.5135ZM2.60742 14.2987C1.1674 14.2987 0 15.4661 0 16.9061C0 18.3465 1.1674 19.5135 2.60742 19.5135V14.2987ZM9.56055 29.9432C11.0006 29.9432 12.168 28.7761 12.168 27.3358C12.168 25.8958 11.0006 24.7284 9.56055 24.7284V29.9432ZM2.60742 24.7284C1.1674 24.7284 0 25.8958 0 27.3358C0 28.7761 1.1674 29.9432 2.60742 29.9432V24.7284ZM13.0371 9.08399C14.4771 9.08399 15.6445 7.91659 15.6445 6.47656C15.6445 5.03654 14.4771 3.86914 13.0371 3.86914V9.08399ZM2.60742 3.86914C1.1674 3.86914 0 5.03654 0 6.47656C0 7.91659 1.1674 9.08399 2.60742 9.08399V3.86914ZM41.5985 26.9854L49.7441 32.9199L52.8146 28.7052L44.669 22.7707L41.5985 26.9854ZM9.56055 14.2987H2.60742V19.5135H9.56055V14.2987ZM9.56055 24.7284H2.60742V29.9432H9.56055V24.7284ZM13.0371 3.86914H2.60742V9.08399H13.0371V3.86914Z" fill="#1341BB"/>
</g>
</svg>
