<svg width="251" height="193" viewBox="0 0 251 193" fill="none" xmlns="http://www.w3.org/2000/svg">
<g clip-path="url(#clip0_237_135)">
<path d="M241.255 8.86084C240.9 8.38987 240.309 7.98251 239.549 7.68351C238.789 7.38451 237.888 7.20543 236.945 7.16591L200.992 7.51978C200 7.56022 199.045 7.74827 198.234 8.06301C197.422 8.37775 196.785 8.80681 196.394 9.30239L160.938 60.0927C160.146 61.2182 160.158 62.4574 160.972 63.5671C161.34 64.0393 161.951 64.4436 162.733 64.7332C163.515 65.0228 164.436 65.1857 165.388 65.203L201.556 64.8471C202.591 64.7988 203.578 64.5796 204.381 64.2193C205.184 63.859 205.765 63.3752 206.044 62.8339L241.501 12.1015C242.166 11.0369 242.079 9.88209 241.255 8.86084Z" fill="#3067B1"/>
<path d="M178.958 5.90205C178.589 5.42985 177.978 5.0255 177.196 4.73593C176.415 4.44636 175.494 4.28344 174.541 4.26606L138.588 4.61993C137.553 4.66822 136.566 4.88745 135.763 5.24772C134.96 5.608 134.379 6.09181 134.1 6.63312L98.6426 57.3655C98.5984 57.6163 98.6009 57.8685 98.65 58.1183L67.7451 102.436C66.9531 103.561 66.9653 104.8 67.7793 105.91C68.148 106.382 68.7587 106.786 69.5405 107.076C70.3223 107.366 71.243 107.529 72.196 107.546L107.827 107.195C108.876 107.15 109.879 106.933 110.701 106.573C111.522 106.213 112.123 105.727 112.423 105.181L147.88 54.4486C147.88 54.4486 147.874 53.8695 147.872 53.6379L178.777 9.37853C179.639 8.26683 179.703 7.02683 178.958 5.90205Z" fill="#3067B1"/>
<path d="M113.062 6.55008C112.701 6.08624 112.107 5.68742 111.346 5.39829C110.585 5.10917 109.687 4.94114 108.752 4.91304L72.7994 5.26691C71.75 5.312 70.7471 5.52917 69.9256 5.88924C69.1041 6.24931 68.5033 6.73504 68.2039 7.28115L32.7467 58.0136L32.7541 58.7663L1.84915 103.084C1.40492 103.635 1.17842 104.229 1.18431 104.828C1.1902 105.426 1.42834 106.015 1.88334 106.558C2.23337 107.026 2.82473 107.428 3.58805 107.718C4.35137 108.008 5.25495 108.174 6.19275 108.195L42.0384 107.842C43.0735 107.794 44.0599 107.575 44.8631 107.214C45.6663 106.854 46.2472 106.37 46.5266 105.829L81.9837 55.0966C82.0162 54.8264 82.0135 54.5555 81.9758 54.2859L113.311 10.0223C113.696 9.46041 113.873 8.86425 113.83 8.26826C113.788 7.67229 113.526 7.08832 113.062 6.55008Z" fill="#3067B1"/>
<path d="M119.9 90.6872C119.532 90.215 118.921 89.8107 118.139 89.5211C117.357 89.2315 116.437 89.0686 115.484 89.0512L79.638 89.404C78.5887 89.4491 77.5858 89.6663 76.7643 90.0264C75.9428 90.3864 75.342 90.8722 75.0426 91.4183L39.5854 142.151C39.5272 142.401 39.5297 142.654 39.5928 142.903L8.57997 187.164C7.788 188.289 7.8002 189.529 8.61417 190.638C8.9552 191.126 9.55599 191.546 10.3415 191.847C11.1271 192.149 12.0627 192.317 13.0315 192.332L48.8772 191.979C49.9122 191.931 50.8987 191.712 51.7019 191.352C52.5051 190.991 53.0859 190.507 53.3653 189.966L88.8219 139.176C88.881 138.906 88.8783 138.634 88.8139 138.365L119.72 94.1637C120.582 93.052 120.646 91.812 119.9 90.6872Z" fill="#3067B1"/>
</g>
<defs>
<clipPath id="clip0_237_135">
<rect width="249" height="190" fill="white" transform="translate(250.858 189.991) rotate(179.436)"/>
</clipPath>
</defs>
</svg>
