<svg width="251" height="193" viewBox="0 0 251 193" fill="none" xmlns="http://www.w3.org/2000/svg">
<g clip-path="url(#clip0_237_127)">
<path d="M246.903 11.049C246.557 10.5714 245.974 10.1531 245.22 9.83996C244.465 9.5268 243.568 9.33091 242.626 9.27378L206.672 8.95574C205.68 8.97764 204.722 9.14782 203.904 9.44733C203.087 9.74684 202.442 10.1639 202.042 10.6521L165.643 60.771C164.83 61.8815 164.819 63.1207 165.612 64.2454C165.972 64.7244 166.575 65.1401 167.351 65.4442C168.127 65.7483 169.045 65.9284 169.997 65.9636L206.165 66.2836C207.201 66.2546 208.191 66.0539 209.001 65.7087C209.811 65.3634 210.401 64.8906 210.69 64.3546L247.089 14.2937C247.774 13.2417 247.708 12.0854 246.903 11.049Z" fill="#3067B1"/>
<path d="M180.543 6.79411C180.183 6.31511 179.58 5.89942 178.804 5.59529C178.027 5.29116 177.11 5.11106 176.157 5.07588L140.204 4.75783C139.168 4.78677 138.178 4.98753 137.368 5.33273C136.558 5.67794 135.968 6.1508 135.679 6.6868L99.2799 56.7478C99.2311 56.9976 99.2288 57.2498 99.2732 57.5005L67.5455 101.233C66.7327 102.343 66.7217 103.582 67.5148 104.707C67.8747 105.186 68.4777 105.602 69.2539 105.906C70.0301 106.21 70.9477 106.39 71.9002 106.425L107.532 106.74C108.582 106.715 109.588 106.517 110.416 106.172C111.245 105.827 111.854 105.353 112.164 104.812L148.563 54.7514C148.563 54.7514 148.568 54.1724 148.57 53.9407L180.297 10.2666C181.18 9.17122 181.267 7.93263 180.543 6.79411Z" fill="#3067B1"/>
<path d="M114.646 6.21177C114.294 5.74128 113.708 5.33142 112.952 5.02812C112.196 4.72483 111.302 4.54005 110.368 4.49449L74.4148 4.17644C73.3647 4.20192 72.358 4.40031 71.5299 4.74496C70.7018 5.08962 70.092 5.56404 69.7825 6.10446L33.3834 56.1654L33.3768 56.9182L1.64907 100.65C1.19461 101.193 0.957055 101.783 0.951762 102.381C0.946468 102.98 1.17355 103.574 1.61834 104.125C1.95956 104.599 2.5433 105.012 3.30106 105.317C4.05883 105.621 4.95916 105.803 5.8964 105.842L41.7424 106.159C42.7782 106.13 43.7685 105.929 44.5783 105.584C45.3881 105.239 45.978 104.766 46.2674 104.23L82.6664 54.1691C82.7039 53.8995 82.7063 53.6286 82.6736 53.3584L114.83 9.68807C115.226 9.13346 115.414 8.5407 115.383 7.94402C115.351 7.34735 115.101 6.75861 114.646 6.21177Z" fill="#3067B1"/>
<path d="M119.911 90.4611C119.551 89.9821 118.948 89.5664 118.172 89.2623C117.396 88.9582 116.478 88.7781 115.526 88.7429L79.6799 88.4258C78.6298 88.4513 77.6231 88.6496 76.795 88.9943C75.9669 89.339 75.3571 89.8134 75.0476 90.3538L38.6486 140.415C38.5857 140.664 38.5834 140.917 38.6419 141.168L6.80737 184.841C5.9945 185.951 5.98354 187.19 6.77663 188.315C7.1085 188.809 7.70132 189.241 8.48111 189.556C9.26091 189.872 10.1932 190.058 11.1615 190.091L47.0075 190.408C48.0433 190.379 49.0337 190.179 49.8435 189.833C50.6533 189.488 51.2431 189.015 51.5325 188.479L87.932 138.361C87.9962 138.092 87.9986 137.82 87.9392 137.55L119.666 93.9336C120.548 92.8382 120.636 91.5996 119.911 90.4611Z" fill="#3067B1"/>
<g clip-path="url(#clip1_237_127)">
<path d="M171.226 129C170.807 129.01 170.391 128.937 170.005 128.785C169.425 128.567 168.926 128.197 168.57 127.721C168.214 127.245 168.016 126.684 168 126.106L168 87.9742C168.012 87.3953 168.208 86.8325 168.565 86.3559C168.922 85.8794 169.423 85.5102 170.005 85.2945C170.595 85.069 171.244 85.0097 171.87 85.1242C172.496 85.2387 173.071 85.5218 173.522 85.9377L194.158 104.963C194.756 105.524 195.091 106.28 195.091 107.067C195.091 107.854 194.756 108.609 194.158 109.17L173.522 128.196C172.9 128.73 172.076 129.019 171.226 129ZM174.452 95.1825L174.452 118.844L187.299 107L174.452 95.1825Z" fill="#3067B1"/>
<path d="M203.138 129C202.71 129.007 202.285 128.934 201.889 128.786C201.316 128.56 200.825 128.188 200.475 127.713C200.124 127.238 199.929 126.68 199.912 126.106L199.912 87.9744C199.922 87.3986 200.114 86.8379 200.465 86.3617C200.817 85.8855 201.311 85.5146 201.889 85.2947C202.477 85.0908 203.116 85.0481 203.73 85.1717C204.343 85.2953 204.905 85.58 205.347 85.9915L225.954 105.017C226.257 105.291 226.498 105.619 226.662 105.98C226.827 106.341 226.911 106.729 226.911 107.121C226.911 107.512 226.827 107.9 226.662 108.261C226.498 108.622 226.257 108.95 225.954 109.224L205.347 128.142C204.753 128.672 203.965 128.978 203.138 129ZM206.365 95.1827L206.365 118.844L219.211 107L206.365 95.1827Z" fill="#3067B1"/>
</g>
</g>
<defs>
<clipPath id="clip0_237_127">
<rect width="249" height="190" fill="white" transform="translate(248.99 192.195) rotate(-179.493)"/>
</clipPath>
<clipPath id="clip1_237_127">
<rect width="59" height="44" fill="white" transform="translate(168 85)"/>
</clipPath>
</defs>
</svg>
