<svg width="58" height="59" viewBox="0 0 58 59" fill="none" xmlns="http://www.w3.org/2000/svg">
<path id="Vector" fill-rule="evenodd" clip-rule="evenodd" d="M15.2252 1.14407C18.9915 0.29264 23.5605 0 29 0C34.4395 0 39.0085 0.29264 42.7747 1.14407C46.574 2.00296 49.7315 3.4692 52.1606 5.94006C54.5896 8.41092 56.0309 11.6231 56.8754 15.4877C57.7123 19.3189 58 23.9667 58 29.5C58 35.0333 57.7123 39.681 56.8754 43.5122C56.0309 47.377 54.5896 50.589 52.1606 53.0599C49.7315 55.5308 46.574 56.997 42.7747 57.856C39.0085 58.7074 34.4395 59 29 59C23.5605 59 18.9915 58.7074 15.2252 57.856C11.4261 56.997 8.26836 55.5308 5.83938 53.0599C3.4104 50.589 1.96901 47.377 1.12468 43.5122C0.28768 39.681 0 35.0333 0 29.5C0 23.9667 0.28768 19.3189 1.12468 15.4877C1.96901 11.6231 3.4104 8.41092 5.83938 5.94006C8.26836 3.4692 11.4261 2.00296 15.2252 1.14407ZM33.9506 18.564C35.083 19.7161 35.083 21.5839 33.9506 22.736L27.3012 29.5L33.9506 36.2641C35.083 37.416 35.083 39.284 33.9506 40.4359C32.8181 41.5879 30.9819 41.5879 29.8494 40.4359L21.9107 32.3603C20.3577 30.7806 20.3577 28.2194 21.9107 26.6397L29.8494 18.564C30.9819 17.412 32.8181 17.412 33.9506 18.564Z" fill="#3067B1"/>
</svg>
